<svg id="Layer_1" data-name="Layer 1" xmlns="http://www.w3.org/2000/svg" viewBox="0 0 377.05 387.95"><defs><style>.cls-1{fill:#ffce01;}.cls-2{fill:#fdbc11;}</style></defs><path class="cls-1" d="M184.33,15.45a5.25,5.25,0,0,1,5.13,5.23V148.41a5.19,5.19,0,0,1-10.37,0V20.68a5.27,5.27,0,0,1,5.24-5.23Z"/><path class="cls-1" d="M97.41,38.73a5,5,0,0,1,7,1.87l63.93,110.67a5.12,5.12,0,0,1-1.87,7,5.19,5.19,0,0,1-7.11-1.87L95.42,45.73a5.17,5.17,0,0,1,2-7Z"/><path class="cls-1" d="M33.77,102.25a5,5,0,0,1,7-1.87l110.69,63.91a5.13,5.13,0,1,1-5.12,8.88L35.64,109.35a5.19,5.19,0,0,1-1.87-7.1Z"/><path class="cls-1" d="M10.38,189.14a5.26,5.26,0,0,1,5.23-5.22H143.38a5.18,5.18,0,0,1,0,10.35H15.61a5.24,5.24,0,0,1-5.23-5.13Z"/><path class="cls-1" d="M33.67,276a5.15,5.15,0,0,1,1.87-7.1L146.23,205a5.17,5.17,0,0,1,5.14,9L40.67,277.92a5.22,5.22,0,0,1-7-1.88Z"/><path class="cls-1" d="M97.21,339.66a5.17,5.17,0,0,1-1.88-7.1l63.93-110.67a5.13,5.13,0,0,1,8.89,5.13L104.31,337.69a5.31,5.31,0,0,1-7.1,2Z"/><path class="cls-1" d="M271.05,339.76a5.28,5.28,0,0,1-7.1-2L200,227.12a5.18,5.18,0,0,1,9-5.13l63.94,110.67a5.37,5.37,0,0,1-1.88,7.1Z"/><path class="cls-1" d="M334.69,276.14a5.19,5.19,0,0,1-7.11,1.87L216.88,214.2a5.21,5.21,0,0,1-1.88-7.1,5.05,5.05,0,0,1,7-1.88L332.71,269a5.3,5.3,0,0,1,2,7.1Z"/><path class="cls-1" d="M358,189.34a5.21,5.21,0,0,1-5.12,5.13H225a5.18,5.18,0,0,1,0-10.36H352.84a5.23,5.23,0,0,1,5.12,5.23Z"/><path class="cls-1" d="M334.78,102.45a5.16,5.16,0,0,1-2,7L222.1,173.36a5.11,5.11,0,0,1-7-1.87,5.17,5.17,0,0,1,1.87-7.1l110.7-63.92a5.3,5.3,0,0,1,7.1,2Z"/><path class="cls-1" d="M271.15,38.83a5,5,0,0,1,1.87,7L209.19,156.5a5.19,5.19,0,0,1-7.1,1.87,5,5,0,0,1-1.88-7L264,40.7a5.2,5.2,0,0,1,7.11-1.87Z"/><path class="cls-2" d="M139.33,21.37A5.16,5.16,0,0,1,145.64,25l23.49,87.68a5.16,5.16,0,0,1-3.65,6.32,5.08,5.08,0,0,1-6.31-3.65L135.59,27.68a5.2,5.2,0,0,1,3.74-6.31Z"/><path class="cls-2" d="M61.39,66.25a5.25,5.25,0,0,1,7.3,0l64.23,64.21a5.25,5.25,0,0,1,0,7.3,5.07,5.07,0,0,1-7.3,0L61.39,73.65a5.19,5.19,0,0,1,0-7.4Z"/><path class="cls-2" d="M16.3,144.17a5.23,5.23,0,0,1,6.42-3.65L110.43,164a5.26,5.26,0,0,1,3.65,6.32,5.17,5.17,0,0,1-6.32,3.65L20,150.48a5.23,5.23,0,0,1-3.65-6.31Z"/><path class="cls-2" d="M16.3,234.12A5.23,5.23,0,0,1,20,227.71l87.71-23.47a5.16,5.16,0,0,1,6.32,3.65,5.09,5.09,0,0,1-3.65,6.31l-87.7,23.57a5.24,5.24,0,0,1-6.33-3.65Z"/><path class="cls-2" d="M61.19,311.94a5.25,5.25,0,0,1,0-7.29l64.23-64.21a5.25,5.25,0,0,1,7.3,0,5.19,5.19,0,0,1,0,7.4l-64.13,64.1a5.17,5.17,0,0,1-7.4,0Z"/><path class="cls-2" d="M139.13,357a5.16,5.16,0,0,1-3.64-6.32L159,262.92a5.18,5.18,0,1,1,10,2.77l-23.49,87.68a5.17,5.17,0,0,1-6.32,3.65Z"/><path class="cls-2" d="M229.11,357a5.23,5.23,0,0,1-6.41-3.65l-23.48-87.68a5.16,5.16,0,1,1,10-2.67l23.58,87.68a5.25,5.25,0,0,1-3.66,6.32Z"/><path class="cls-2" d="M307,312.15a5.24,5.24,0,0,1-7.31,0l-64.23-64.22a5.2,5.2,0,1,1,7.41-7.3L307,304.85a5.07,5.07,0,0,1,0,7.3Z"/><path class="cls-2" d="M352.05,234.22a5.16,5.16,0,0,1-6.31,3.65L257.92,214.4a5.17,5.17,0,1,1,2.77-10l87.72,23.48a5.25,5.25,0,0,1,3.64,6.31Z"/><path class="cls-2" d="M352.05,144.36a5.18,5.18,0,0,1-3.64,6.32l-87.72,23.47a5.15,5.15,0,0,1-6.31-3.65,5.07,5.07,0,0,1,3.65-6.31l87.71-23.57a5.21,5.21,0,0,1,6.31,3.74Z"/><path class="cls-2" d="M307.15,66.45a5.22,5.22,0,0,1,0,7.29L242.92,138a5.22,5.22,0,0,1-7.29,0,5.05,5.05,0,0,1,0-7.29l64.21-64.21a5.08,5.08,0,0,1,7.31,0Z"/><path class="cls-2" d="M229.22,21.37a5.24,5.24,0,0,1,3.65,6.41l-23.48,87.69a5.23,5.23,0,0,1-6.32,3.64,5.16,5.16,0,0,1-3.65-6.31L222.9,25a5.35,5.35,0,0,1,6.32-3.65Z"/><path class="cls-1" d="M184.33,227.88a5.25,5.25,0,0,1,5.13,5.22V360.83a5.19,5.19,0,0,1-10.37,0V233.1a5.26,5.26,0,0,1,5.24-5.22Z"/></svg>