<svg id="Layer_1" data-name="Layer 1" xmlns="http://www.w3.org/2000/svg" viewBox="0 0 624 235"><defs><style>.cls-1{fill:#0b4a7b;}.cls-2{fill:#fff;}.cls-3{fill:#3396ce;}.cls-4{fill:#04a331;}.cls-5{fill:#ebb41f;}</style></defs><rect class="cls-1" x="-1.3" y="-0.83" width="626.83" height="236.37"/><path class="cls-2" d="M47.46,182.63c5.29,0,5.92,2.21,5.92,4.17v6.28c0,.49.27.68.58.68a4.09,4.09,0,0,0,1-.07V196a8.15,8.15,0,0,1-2,.29c-1.41,0-2.08-.63-2.18-1.65-1,1.12-2.72,1.77-5.15,1.77-3,0-4.51-1.6-4.51-4,0-2.74,1.87-3.66,4.09-4a28.33,28.33,0,0,0,4.7-.73.9.9,0,0,0,.7-1c0-1-.7-1.84-3.11-1.84-1.56,0-2.89.46-3,2.11v0H41.64C42,183.63,44.32,182.63,47.46,182.63Zm3,6.94a5.76,5.76,0,0,1-1.29.41c-1.86.41-3.34.34-4.4.92a1.38,1.38,0,0,0-.75,1.41c0,1.48,1,2,2.31,2,1.91,0,4.13-.9,4.13-3.52Z"/><path class="cls-2" d="M61.35,182.63c3.42,0,5.81,1.29,5.94,4.42h-3c-.19-1.63-1.58-2.14-3.12-2.14s-2.49.7-2.49,1.5a1,1,0,0,0,.85,1.19c1,.34,2.66.49,4.24.83,2.22.48,3.92,1.16,3.92,3.63,0,3.25-2.66,4.39-6.08,4.39-3.18,0-6.09-1-6.17-4.48v0h3.11c.07,1.85,1.81,2.23,3,2.23s3-.31,3-1.64c0-.83-.4-1.07-1.31-1.36-1.37-.44-4.34-.56-5.9-1.38a3,3,0,0,1-1.56-3C55.82,183.48,58.79,182.63,61.35,182.63Z"/><path class="cls-2" d="M76.42,182.78c4,0,6,3.39,6,6.81s-2,6.86-6,6.86c-2.37,0-4-1.55-4.22-2.25h0v6.67H69.3V183.12h2.86V185h0A4.51,4.51,0,0,1,76.42,182.78ZM72,189.59c0,2.38,1.16,4.29,3.69,4.29s3.72-1.86,3.72-4.29c0-2.28-1.12-4.24-3.74-4.24C73.43,185.35,72,187,72,189.59Z"/><path class="cls-2" d="M90.39,182.63c4.22,0,6.87,2.69,6.75,7.76H86.76A3.53,3.53,0,0,0,90.49,194a3.28,3.28,0,0,0,3.29-1.84h3.11a6.38,6.38,0,0,1-6.31,4.26c-4.88,0-6.81-3.25-6.81-6.79C83.77,185.4,86.47,182.63,90.39,182.63Zm3.76,5.63a3.62,3.62,0,0,0-3.74-3.35,3.69,3.69,0,0,0-3.65,3.35Z"/><path class="cls-2" d="M106.19,182.78c3.61,0,4.67,2.18,4.67,4.36V196H108v-7.76c0-1.92-1-2.86-2.77-2.86a3.38,3.38,0,0,0-3.42,3.64v7H98.94V183.12h2.87v1.94h0A5,5,0,0,1,106.19,182.78Z"/><path class="cls-2" d="M123.11,178.37v2.71h-2.87v-2.71Zm0,4.75V196h-2.87V183.12Z"/><path class="cls-2" d="M132.59,182.78c3.62,0,4.68,2.18,4.68,4.36V196H134.4v-7.76c0-1.92-1-2.86-2.76-2.86a3.39,3.39,0,0,0-3.43,3.64v7h-2.86V183.12h2.86v1.94h0A5,5,0,0,1,132.59,182.78Z"/><path class="cls-2" d="M144.76,182.63c3.43,0,5.81,1.29,5.94,4.42h-3c-.19-1.63-1.58-2.14-3.12-2.14s-2.49.7-2.49,1.5a1,1,0,0,0,.85,1.19c1,.34,2.66.49,4.24.83,2.22.48,3.92,1.16,3.92,3.63,0,3.25-2.65,4.39-6.08,4.39-3.18,0-6.09-1-6.17-4.48v0H142c.06,1.85,1.8,2.23,3,2.23s3-.31,3-1.64c0-.83-.4-1.07-1.31-1.36-1.37-.44-4.34-.56-5.9-1.38a3,3,0,0,1-1.56-3C139.23,183.48,142.2,182.63,144.76,182.63Z"/><path class="cls-2" d="M156.47,179.14v4h3v2.42h-3v6.09c0,1.65.25,2.06,1.12,2.06.66,0,1.31,0,2-.05v2.43a12.69,12.69,0,0,1-2.2.19c-3.22,0-3.76-1.19-3.76-3.69v-7h-2.28v-2.42h2.28v-4Z"/><path class="cls-2" d="M163.94,178.37v2.71h-2.87v-2.71Zm0,4.75V196h-2.87V183.12Z"/><path class="cls-2" d="M169.94,179.14v4h3v2.42h-3v6.09c0,1.65.25,2.06,1.12,2.06.67,0,1.31,0,2-.05v2.43a12.61,12.61,0,0,1-2.2.19c-3.22,0-3.76-1.19-3.76-3.69v-7h-2.28v-2.42h2.28v-4Z"/><path class="cls-2" d="M177.33,183.12v7.44c0,2.21.75,3.32,2.82,3.32a3.44,3.44,0,0,0,3.37-3.66v-7.1h2.86V196h-2.86v-1.8h0a5,5,0,0,1-4.34,2.28c-3.49,0-4.68-2.13-4.68-4.65v-8.68Z"/><path class="cls-2" d="M192.3,179.14v4h3v2.42h-3v6.09c0,1.65.25,2.06,1.12,2.06.66,0,1.31,0,2-.05v2.43a12.69,12.69,0,0,1-2.2.19c-3.22,0-3.76-1.19-3.76-3.69v-7h-2.28v-2.42h2.28v-4Z"/><path class="cls-2" d="M203.09,182.63c4.22,0,6.88,2.69,6.75,7.76H199.46A3.54,3.54,0,0,0,203.2,194a3.27,3.27,0,0,0,3.28-1.84h3.11a6.38,6.38,0,0,1-6.31,4.26c-4.88,0-6.81-3.25-6.81-6.79C196.47,185.4,199.17,182.63,203.09,182.63Zm3.76,5.63a3.62,3.62,0,0,0-3.73-3.35,3.7,3.7,0,0,0-3.66,3.35Z"/><path class="cls-2" d="M364.41,177.77V196h-3v-1.83h-.05c-.19.72-1.91,2.33-4.36,2.33-4.16,0-6.22-3.49-6.22-7.1s2-7,6.22-7a4.73,4.73,0,0,1,4.36,2.26h.05v-6.82Zm-10.5,11.6c0,2.51,1.2,4.44,3.84,4.44s3.83-2,3.83-4.44-1.19-4.38-3.85-4.38C355.5,185,353.91,186.52,353.91,189.37Z"/><path class="cls-2" d="M373.12,182.18c4.36,0,7.11,2.78,7,8H369.36a3.66,3.66,0,0,0,3.87,3.76,3.36,3.36,0,0,0,3.39-1.9h3.22a6.59,6.59,0,0,1-6.53,4.41c-5,0-7-3.36-7-7C366.27,185,369.06,182.18,373.12,182.18ZM377,188a3.75,3.75,0,0,0-3.87-3.46,3.81,3.81,0,0,0-3.78,3.46Z"/><path class="cls-2" d="M383.36,182.68l3.39,9.88,3.52-9.88h3.35L388.42,196H385.2L380,182.68Z"/><path class="cls-2" d="M401.06,182.18c4.36,0,7.11,2.78,7,8H397.31a3.65,3.65,0,0,0,3.86,3.76,3.35,3.35,0,0,0,3.39-1.9h3.23a6.61,6.61,0,0,1-6.53,4.41c-5.05,0-7-3.36-7-7C394.22,185,397,182.18,401.06,182.18ZM405,188a3.75,3.75,0,0,0-3.86-3.46,3.81,3.81,0,0,0-3.78,3.46Z"/><path class="cls-2" d="M413,177.77V196h-3v-18.2Z"/><path class="cls-2" d="M421.81,182.18c5,0,7.05,3.41,7.05,7.14s-2.06,7.15-7.05,7.15-7-3.36-7-7.15S416.81,182.18,421.81,182.18Zm-3.95,7.14c0,2.49,1.25,4.49,3.95,4.49s3.95-2,3.95-4.49-1.2-4.48-4-4.48C419.52,184.84,417.86,186.37,417.86,189.32Z"/><path class="cls-2" d="M438,182.33c4.19,0,6.23,3.51,6.23,7s-2.06,7.1-6.23,7.1c-2.44,0-4.16-1.61-4.35-2.33h-.05V201h-3V182.68h3v1.91h.05A4.66,4.66,0,0,1,438,182.33Zm-4.53,7c0,2.46,1.21,4.44,3.83,4.44s3.84-1.93,3.84-4.44c0-2.35-1.16-4.38-3.87-4.38C434.86,185,433.42,186.69,433.42,189.37Z"/><path class="cls-2" d="M453.41,182.33c1.5,0,3.26.38,4,2.46a5.16,5.16,0,0,1,4.62-2.46c3.13,0,4.53,2,4.53,4.71V196h-3V187.9c0-2.06-.83-2.91-2.77-2.91-1.48,0-3.11,1-3.11,3.51V196h-3v-8.23c0-2.05-1.05-2.75-2.77-2.75a3.17,3.17,0,0,0-3.11,3.51V196h-3V182.68h3v2h0A5.16,5.16,0,0,1,453.41,182.33Z"/><path class="cls-2" d="M475.28,182.18c4.35,0,7.1,2.78,7,8H471.52a3.65,3.65,0,0,0,3.86,3.76,3.38,3.38,0,0,0,3.4-1.9H482a6.6,6.6,0,0,1-6.53,4.41c-5.05,0-7-3.36-7-7C468.43,185,471.22,182.18,475.28,182.18Zm3.88,5.82a3.74,3.74,0,0,0-3.86-3.46,3.81,3.81,0,0,0-3.78,3.46Z"/><path class="cls-2" d="M491.61,182.33c3.73,0,4.83,2.26,4.83,4.51V196h-3v-8c0-2-1-3-2.86-3a3.49,3.49,0,0,0-3.54,3.76V196h-3V182.68h3v2h0A5.2,5.2,0,0,1,491.61,182.33Z"/><path class="cls-2" d="M502.55,178.57v4.11h3.09v2.51h-3.09v6.29c0,1.71.26,2.13,1.16,2.13.69,0,1.35,0,2-.05v2.51a13.41,13.41,0,0,1-2.27.2c-3.33,0-3.89-1.23-3.89-3.81v-7.27h-2.36v-2.51h2.36v-4.11Z"/><path class="cls-2" d="M518.66,177.77v2.8h-3v-2.8Zm0,4.91V196h-3V182.68Z"/><path class="cls-2" d="M529.19,182.33c3.74,0,4.83,2.26,4.83,4.51V196h-3v-8c0-2-1-3-2.86-3a3.5,3.5,0,0,0-3.54,3.76V196h-3V182.68h3v2h0A5.21,5.21,0,0,1,529.19,182.33Z"/><path class="cls-2" d="M548.89,177.77V196h-3v-1.83h0c-.2.72-1.91,2.33-4.36,2.33-4.17,0-6.23-3.49-6.23-7.1s2-7,6.23-7a4.73,4.73,0,0,1,4.36,2.26h0v-6.82Zm-10.5,11.6c0,2.51,1.21,4.44,3.85,4.44s3.82-2,3.82-4.44-1.18-4.38-3.84-4.38C540,185,538.39,186.52,538.39,189.37Z"/><path class="cls-2" d="M557.33,182.18c4.36,0,7.11,2.78,7,8H553.57a3.66,3.66,0,0,0,3.87,3.76,3.35,3.35,0,0,0,3.39-1.9h3.22a6.59,6.59,0,0,1-6.53,4.41c-5,0-7-3.36-7-7C550.48,185,553.27,182.18,557.33,182.18Zm3.89,5.82a3.75,3.75,0,0,0-3.87-3.46,3.82,3.82,0,0,0-3.78,3.46Z"/><path class="cls-2" d="M568.26,182.68l2.92,4.31,3-4.31H578l-4.79,6.44,5.14,6.82-4,0-3.19-4.72L567.89,196h-3.82l5.11-6.85-4.75-6.44Z"/><path class="cls-2" d="M568.19,163.45V157c0-1,.19-3.55,2.84-3.13,4.64.75,14.6-1.23,14.59-11.71a12.12,12.12,0,0,0-3.23-7.92c-3-3.44-9.17-5.35-14.94-15.56h0c-5.77,10.21-12,12.12-14.94,15.56a12.12,12.12,0,0,0-3.23,7.92c0,10.48,10,12.46,14.59,11.71,2.65-.42,2.84,2.15,2.84,3.13v6.5Z"/><path class="cls-2" d="M40.68,150.34H51.21V141H54.8v9.32H77.07c3.28,0,4.05-1.65,4.05-4.75a26.09,26.09,0,0,0-.39-4.57h4a35.54,35.54,0,0,1,.39,5.14c0,6.33-2.06,8.87-8,8.87H54.8v7.09H51.21V155H40.68Z"/><path class="cls-2" d="M38.37,131.53H57.75v-.12c-3.46-1.27-7.57-6.15-7.57-13.69,0-13.56,9.24-14.19,14.19-14.19l20.21-.07v4.69l-20.73.07c-3,0-9.69,0-9.69,9.94,0,8.43,4,13.37,12.13,13.37l18.29-.06v4.69l-46.21.06Z"/><path class="cls-2" d="M50.18,82.38c0-11.4,6.74-18.26,18.55-18.26h.32V95.41c6.74,0,12.58-4.61,12.58-13.09,0-7.79-2.69-11.09-7.7-12.78V64.93c7.64,2.43,11.68,8.54,11.68,17.45C85.61,94.66,77.14,100,67.9,100,58.27,100,50.18,94.17,50.18,82.38ZM65.46,68.73c-7.64,1.19-11.3,6.55-11.3,13.4,0,5.8,3.08,12.28,11.3,13.28Z"/><path class="cls-2" d="M110.7,61.63l.18,94H97.51l-.18-94Z"/><path class="cls-3" d="M110.7,35.46V49.9H97.33V35.46Z"/><path class="cls-2" d="M180.11,58.74c39.57,0,40.47,27.29,40.47,41l.18,55.84H207.39l-.18-57.82c0-10.85-.9-27.83-28.37-27.83-24.57,0-38.13,11.74-38.13,34.51l.18,51.14H127.52l-.18-94h13.37V80.07h.36C144.69,70.31,158.6,58.74,180.11,58.74Z"/><path class="cls-2" d="M332.08,35.06l.18,120.54H318.89l-.18-18.79h-.36c-6.87,13.37-20.78,21.68-38.31,21.68-37.23,0-51.14-25.66-51.14-49.87,0-27.29,17.17-49.88,51.14-49.88,18.43,0,32.34,10.12,38.31,21.69h.36V35.06Zm-89.81,73.56c0,20.24,11.75,38.67,37.77,38.67,22.41,0,39.39-14.28,39.39-38.67C319.43,88.56,306.6,70,279.86,70,259.08,70,242.27,84.58,242.27,108.62Z"/><path class="cls-2" d="M391.54,58.74c33.07,0,52.94,19,52.94,52.23v.9H353.77c0,19,13.37,35.42,38,35.42,22.58,0,32.16-7.59,37-21.69h13.37c-7,21.51-24.75,32.89-50.59,32.89-35.6,0-51.14-23.85-51.14-49.87C340.4,81.51,357.38,58.74,391.54,58.74Zm39.57,43c-3.43-21.5-19-31.8-38.85-31.8-16.81,0-35.6,8.67-38.49,31.8Z"/><path class="cls-2" d="M530.34,73.72l-29.75,33.09,44.27,48.79H527.15l-35-39-34.52,39H440.05l43-48.79L443,61.63h17.34L492.1,97.41l21-23.85Z"/><path class="cls-4" d="M513,73.72l10.71-12.09h17.53l-11,12.2Z"/><path class="cls-5" d="M332.08,21v14.1H318.71V21Z"/><path class="cls-2" d="M222.43,177.77V196h-3v-18.2Z"/><path class="cls-2" d="M231.23,181.82c4.36,0,7.1,2.78,7,8H227.47a3.66,3.66,0,0,0,3.87,3.76,3.38,3.38,0,0,0,3.39-1.91H238a6.59,6.59,0,0,1-6.53,4.42c-5,0-7-3.36-7-7C224.38,184.67,227.17,181.82,231.23,181.82Zm3.88,5.81a3.75,3.75,0,0,0-3.86-3.46,3.81,3.81,0,0,0-3.78,3.46Z"/><path class="cls-2" d="M246,182.18c5.48,0,6.12,2.28,6.12,4.31V193c0,.51.28.71.6.71a3.79,3.79,0,0,0,1-.08V196a8,8,0,0,1-2.08.3c-1.46,0-2.15-.65-2.26-1.7-1,1.15-2.81,1.83-5.32,1.83-3.11,0-4.66-1.66-4.66-4.16,0-2.84,1.93-3.79,4.23-4.09a28.64,28.64,0,0,0,4.85-.75.93.93,0,0,0,.73-1c0-1.05-.73-1.9-3.22-1.9-1.61,0-3,.47-3.11,2.18v0H240C240.38,183.21,242.74,182.18,246,182.18Zm3.16,7.17a5.77,5.77,0,0,1-1.33.43c-1.93.42-3.46.35-4.55.95a1.42,1.42,0,0,0-.78,1.45c0,1.53,1,2.08,2.39,2.08,2,0,4.27-.92,4.27-3.63Z"/><path class="cls-2" d="M267.92,177.77V196h-3v-1.83h0c-.19.72-1.91,2.33-4.35,2.33-4.17,0-6.23-3.49-6.23-7.1s2-7,6.23-7a4.72,4.72,0,0,1,4.35,2.26h0v-6.82Zm-10.5,11.6c0,2.51,1.2,4.44,3.84,4.44s3.82-2,3.82-4.44S263.9,185,261.24,185C259,185,257.42,186.52,257.42,189.37Z"/><path class="cls-2" d="M276.63,182.18c4.36,0,7.11,2.78,7,8H272.87a3.66,3.66,0,0,0,3.87,3.76,3.36,3.36,0,0,0,3.39-1.9h3.22a6.59,6.59,0,0,1-6.53,4.41c-5,0-7-3.36-7-7C269.78,185,272.57,182.18,276.63,182.18Zm3.89,5.82a3.75,3.75,0,0,0-3.87-3.46,3.82,3.82,0,0,0-3.78,3.46Z"/><path class="cls-2" d="M292.77,182.33a4.82,4.82,0,0,1,1.18.13v3.4a5.29,5.29,0,0,0-1.87-.32,3.59,3.59,0,0,0-3.65,3.93V196h-3V182.68h3v2.58h0C289.44,183.48,290.69,182.33,292.77,182.33Z"/><path class="cls-2" d="M300.75,182.18c3.54,0,6,1.33,6.14,4.56H303.8c-.19-1.68-1.63-2.2-3.22-2.2s-2.58.72-2.58,1.55a1.06,1.06,0,0,0,.88,1.23c1.08.35,2.75.5,4.38.85,2.3.5,4.06,1.2,4.06,3.76,0,3.36-2.75,4.54-6.29,4.54-3.28,0-6.29-1.08-6.38-4.64v0h3.22c.07,1.9,1.87,2.3,3.14,2.3s3.09-.32,3.09-1.7c0-.85-.41-1.11-1.35-1.41-1.42-.45-4.49-.57-6.1-1.43a3.07,3.07,0,0,1-1.61-3.1C295,183.06,298.11,182.18,300.75,182.18Z"/><path class="cls-2" d="M311.93,177.77v6.92h0a5.21,5.21,0,0,1,4.49-2.36c3.74,0,4.83,2.26,4.83,4.51V196h-3v-8c0-2-1-3-2.86-3a3.49,3.49,0,0,0-3.54,3.76V196h-3v-18.2Z"/><path class="cls-2" d="M326.57,177.77v2.8h-3v-2.8Zm0,4.91V196h-3V182.68Z"/><path class="cls-2" d="M336.25,182.33c4.18,0,6.22,3.51,6.22,7s-2.06,7.1-6.22,7.1c-2.45,0-4.17-1.61-4.36-2.33h-.05V201h-3V182.68h3v1.91h.05A4.67,4.67,0,0,1,336.25,182.33Zm-4.53,7c0,2.46,1.2,4.44,3.82,4.44s3.84-1.93,3.84-4.44c0-2.35-1.16-4.38-3.86-4.38C333.15,185,331.72,186.69,331.72,189.37Z"/></svg>