<svg xmlns="http://www.w3.org/2000/svg" width="15.555" height="15.9" viewBox="0 0 15.555 15.9">
  <g id="door-key" transform="translate(-18.062 -38)">
    <path id="Path_113" data-name="Path 113" d="M24.617,5.015a5.015,5.015,0,1,0-9.411,2.413l-6,6a.491.491,0,0,0-.1.55.35.35,0,0,0,.078.112l1.344,1.344a.383.383,0,0,0,.112.078.488.488,0,0,0,.55-.1l.831-.831,1.2,1.2a.384.384,0,0,0,.112.078.488.488,0,0,0,.55-.1L15.2,14.433a.384.384,0,0,0,.078-.112.488.488,0,0,0-.1-.55l-1.177-1.177,3.18-3.181a5.015,5.015,0,0,0,7.43-4.4ZM21.359,6.774a2.491,2.491,0,1,1,.726-1.759A2.448,2.448,0,0,1,21.359,6.774Z" transform="translate(9 38)" fill="#263640"/>
  </g>
</svg>
