<svg xmlns="http://www.w3.org/2000/svg" width="21.481" height="21" viewBox="0 0 21.481 21">
  <g id="logout" transform="translate(0 -1.374)">
    <path id="Path_103" data-name="Path 103" d="M15.046,6.045V2.424A1.053,1.053,0,0,0,14,1.374H1.05A1.053,1.053,0,0,0,0,2.424V17.26a1.069,1.069,0,0,0,.56.927l7.978,4.129a.529.529,0,0,0,.77-.472V17.82H14a1.053,1.053,0,0,0,1.05-1.05V11.032h-2.1V15.2a.516.516,0,0,1-.525.525h-3.1V6.815a1.069,1.069,0,0,0-.56-.927L4.059,3.474h8.363A.516.516,0,0,1,12.947,4V6.063h2.1Z" fill="#00497b"/>
    <path id="Path_104" data-name="Path 104" d="M68.3,16.673l3.412,3.412a1.047,1.047,0,0,1,0,1.522L68.3,25.019a1.068,1.068,0,0,1-1.54.018,1.116,1.116,0,0,1,.035-1.54l1.539-1.522H62.368a1.035,1.035,0,0,1-.787-.35,1.188,1.188,0,0,1,.262-1.8,1.121,1.121,0,0,1,.525-.14h5.966s-1.522-1.522-1.539-1.522a1.059,1.059,0,1,1,1.5-1.487Z" transform="translate(-50.558 -12.343)" fill="#00497b"/>
  </g>
</svg>
