<svg xmlns="http://www.w3.org/2000/svg" width="15.577" height="15.576" viewBox="0 0 15.577 15.576">
  <g id="edit" transform="translate(-6.044 -0.501)">
    <path id="Path_132" data-name="Path 132" d="M182.667,76.224a.509.509,0,0,0-.138.257l-.711,3.559a.5.5,0,0,0,.494.6.479.479,0,0,0,.1-.01l3.558-.711a.5.5,0,0,0,.258-.138l7.963-7.962-3.558-3.557Zm0,0" transform="translate(-175.764 -64.564)" fill="#263640"/>
    <path id="Path_133" data-name="Path 133" d="M396.4,1.237a2.518,2.518,0,0,0-3.558,0L391.445,2.63,395,6.187,396.4,4.794a2.515,2.515,0,0,0,0-3.557Zm0,0" transform="translate(-375.512)" fill="#263640"/>
  </g>
</svg>
