<svg xmlns="http://www.w3.org/2000/svg" width="22.205" height="22.205" viewBox="0 0 22.205 22.205">
  <g id="user" transform="translate(0 0)">
    <g id="Group_25" data-name="Group 25" transform="translate(0 0)">
      <path id="Path_105" data-name="Path 105" d="M18.953,3.252a11.1,11.1,0,0,0-15.7,15.7,11.1,11.1,0,0,0,15.7-15.7ZM11.1,20.9A9.779,9.779,0,0,1,3.8,17.629,7.809,7.809,0,0,1,11.1,12.577a3.9,3.9,0,1,1,3.9-3.9,3.9,3.9,0,0,1-3.9,3.9,7.809,7.809,0,0,1,7.306,5.052A9.779,9.779,0,0,1,11.1,20.9Z" transform="translate(0 0)" fill="#00497b"/>
    </g>
  </g>
</svg>
