<svg xmlns="http://www.w3.org/2000/svg" width="15" height="15" viewBox="0 0 15 15">
  <path id="Subtraction_2" data-name="Subtraction 2" d="M12-2597H3a3,3,0,0,1-3-3v-9a3,3,0,0,1,3-3h9a3,3,0,0,1,3,3v9A3,3,0,0,1,12-2597Zm-2.937-10.092v0l-4.913,4.914a.735.735,0,0,0-.108.948.711.711,0,0,0,.575.294.71.71,0,0,0,.414-.134.642.642,0,0,0,.093-.08l4.936-4.936-.058.158a1.4,1.4,0,0,0-.083.482v2.769a.731.731,0,0,0,.59.736.726.726,0,0,0,.11.009.712.712,0,0,0,.7-.6.65.65,0,0,0,.008-.094v-5.006a.709.709,0,0,0-.707-.709H5.613a.709.709,0,0,0-.5.208.7.7,0,0,0-.208.5.638.638,0,0,0,.007.093.732.732,0,0,0,.717.591h.019l2.768,0h.007a1.358,1.358,0,0,0,.426-.068Z" transform="translate(0 2612)" fill="#263640"/>
</svg>
