<svg xmlns="http://www.w3.org/2000/svg" width="17.004" height="14.454" viewBox="0 0 17.004 14.454">
  <g id="user-group" transform="translate(0 -29.114)">
    <path id="Path_117" data-name="Path 117" d="M130.585,36.183c1.607,0,2.91-1.582,2.91-3.534s-.428-3.534-2.91-3.534-2.91,1.582-2.91,3.534S128.978,36.183,130.585,36.183Z" transform="translate(-122.083)" fill="#263640"/>
    <path id="Path_118" data-name="Path 118" d="M79.617,201.679c-.054-3.4-.5-4.369-3.9-4.983a2.387,2.387,0,0,1-3.187,0c-3.361.607-3.833,1.561-3.895,4.872-.005.27-.007.285-.008.253,0,.059,0,.168,0,.357,0,0,.809,1.631,5.5,1.631s5.5-1.631,5.5-1.631c0-.122,0-.207,0-.264A2.128,2.128,0,0,1,79.617,201.679Z" transform="translate(-65.625 -160.242)" fill="#263640"/>
    <path id="Path_119" data-name="Path 119" d="M262.772,50.759a2.654,2.654,0,0,0,2.363-2.871c0-1.585-.347-2.871-2.363-2.871a3.37,3.37,0,0,0-.882.1,5.793,5.793,0,0,1,.529,2.733,4.846,4.846,0,0,1-.726,2.587A2.024,2.024,0,0,0,262.772,50.759Z" transform="translate(-250.232 -15.207)" fill="#263640"/>
    <path id="Path_120" data-name="Path 120" d="M288.38,185.172c-.044-2.762-.4-3.549-3.165-4.047a1.655,1.655,0,0,1-1.294.5l-.109,0a3.631,3.631,0,0,1,1.484,1.149c.666.914.82,2.141.851,3.945,1.857-.367,2.238-1.133,2.238-1.133,0-.1,0-.168,0-.215A1.62,1.62,0,0,1,288.38,185.172Z" transform="translate(-271.381 -145.353)" fill="#263640"/>
    <path id="Path_121" data-name="Path 121" d="M50.318,50.76a2.025,2.025,0,0,0,1.078-.316,4.847,4.847,0,0,1-.726-2.587,5.794,5.794,0,0,1,.529-2.733,3.369,3.369,0,0,0-.882-.1c-2.016,0-2.363,1.285-2.363,2.871A2.654,2.654,0,0,0,50.318,50.76Z" transform="translate(-45.855 -15.208)" fill="#263640"/>
    <path id="Path_122" data-name="Path 122" d="M4.573,181.616l-.109,0a1.655,1.655,0,0,1-1.294-.5c-2.76.5-3.121,1.285-3.165,4.047a1.675,1.675,0,0,1-.005.191c0,.047,0,.115,0,.215,0,0,.381.766,2.237,1.133.032-1.8.185-3.031.851-3.945A3.631,3.631,0,0,1,4.573,181.616Z" transform="translate(0 -145.352)" fill="#263640"/>
  </g>
</svg>
