<svg xmlns="http://www.w3.org/2000/svg" width="13.486" height="8.5" viewBox="0 0 13.486 8.5">
  <g id="chevron-arrow-down" transform="translate(0 0)">
    <path id="Path_14" data-name="Path 14" d="M13.165,83.2l-.649-.649a1.108,1.108,0,0,0-.787-.32,1.061,1.061,0,0,0-.779.32L6.743,86.753,2.536,82.546a1.061,1.061,0,0,0-.779-.32,1.108,1.108,0,0,0-.788.32L.329,83.2A1.074,1.074,0,0,0,0,83.983a1.029,1.029,0,0,0,.329.779L5.964,90.4a1.029,1.029,0,0,0,.779.329A1.074,1.074,0,0,0,7.53,90.4l5.635-5.635a1.06,1.06,0,0,0,.32-.779A1.109,1.109,0,0,0,13.165,83.2Z" transform="translate(0 -82.226)" fill="#777"/>
  </g>
</svg>
