<svg id="Ico_360" data-name="Ico 360" xmlns="http://www.w3.org/2000/svg" width="25" height="25" viewBox="0 0 25 25">
  <rect id="Rectangle_23" data-name="Rectangle 23" width="25" height="25" rx="4" fill="none"/>
  <path id="_360-degree" data-name="360-degree" d="M18.761,154.5a6.972,6.972,0,0,0-2.165-1.19,20.252,20.252,0,0,0-6.752-1.035c-.862,0-2.518.124-2.518.124l-1.194.153a30.282,30.282,0,0,0-3.041.758A6.973,6.973,0,0,0,.926,154.5,2.33,2.33,0,0,0,0,156.266c0,1.1.951,2.077,2.7,2.8l-.85.372a.577.577,0,1,0,.462,1.057l2.232-.975a.577.577,0,0,0,.278-.8l-1.148-2.151a.577.577,0,1,0-1.018.543l.472.884c-1.439-.6-1.974-1.263-1.974-1.73,0-.633.874-1.332,2.337-1.871.734-.27,2.489-.647,2.489-.647l1.178-.169s1.761-.148,2.687-.148a19.09,19.09,0,0,1,6.353.964c1.463.539,2.337,1.238,2.337,1.871s-.874,1.332-2.337,1.871a19.09,19.09,0,0,1-6.353.964c-.129,0-.258,0-.385,0a.577.577,0,0,0-.018,1.153c.133,0,.269,0,.4,0a20.252,20.252,0,0,0,6.752-1.035,6.972,6.972,0,0,0,2.165-1.19,2.141,2.141,0,0,0,0-3.526Zm0,0" transform="translate(2.5 -143.777)" fill="#263640" stroke="#263640" stroke-width="0.5"/>
</svg>
