<?xml version="1.0" encoding="utf-8"?>
<!-- Generator: Adobe Illustrator 26.2.1, SVG Export Plug-In . SVG Version: 6.00 Build 0)  -->
<svg version="1.1" id="Layer_1" xmlns="http://www.w3.org/2000/svg" xmlns:xlink="http://www.w3.org/1999/xlink" x="0px" y="0px"
	 viewBox="0 0 624 235" style="enable-background:new 0 0 624 235;" xml:space="preserve">
<style type="text/css">
	.st0{fill:#FFFFFF;}
	.st1{fill:#3396CE;}
	.st2{fill:#04A331;}
	.st3{fill:#EBB41F;}
</style>
<path class="st0" d="M47.5,182.6c5.3,0,5.9,2.2,5.9,4.2v6.3c0,0.5,0.3,0.7,0.6,0.7c0.3,0,0.7,0,1-0.1v2.3c-0.7,0.2-1.3,0.3-2,0.3
	c-1.4,0-2.1-0.6-2.2-1.6c-1,1.1-2.7,1.8-5.2,1.8c-3,0-4.5-1.6-4.5-4c0-2.7,1.9-3.7,4.1-4c1.6-0.1,3.2-0.4,4.7-0.7
	c0.5-0.1,0.8-0.5,0.7-1c0-1-0.7-1.8-3.1-1.8c-1.6,0-2.9,0.5-3,2.1l0,0h-2.9C42,183.6,44.3,182.6,47.5,182.6z M50.5,189.6
	c-0.4,0.2-0.8,0.3-1.3,0.4c-1.9,0.4-3.3,0.3-4.4,0.9c-0.5,0.3-0.8,0.8-0.8,1.4c0,1.5,1,2,2.3,2c1.9,0,4.1-0.9,4.1-3.5V189.6z"/>
<path class="st0" d="M61.3,182.6c3.4,0,5.8,1.3,5.9,4.4h-3c-0.2-1.6-1.6-2.1-3.1-2.1s-2.5,0.7-2.5,1.5c-0.1,0.5,0.2,1.1,0.8,1.2
	c0,0,0,0,0.1,0c1,0.3,2.7,0.5,4.2,0.8c2.2,0.5,3.9,1.2,3.9,3.6c0,3.2-2.7,4.4-6.1,4.4c-3.2,0-6.1-1-6.2-4.5l0,0h3.1
	c0.1,1.9,1.8,2.2,3,2.2s3-0.3,3-1.6c0-0.8-0.4-1.1-1.3-1.4c-1.4-0.4-4.3-0.6-5.9-1.4c-1.1-0.6-1.7-1.8-1.6-3
	C55.8,183.5,58.8,182.6,61.3,182.6z"/>
<path class="st0" d="M76.4,182.8c4,0,6,3.4,6,6.8s-2,6.9-6,6.9c-2.4,0-4-1.6-4.2-2.2l0,0v6.7h-2.9v-17.8h2.9v1.9l0,0
	C73,183.5,74.7,182.6,76.4,182.8z M72,189.6c0,2.4,1.2,4.3,3.7,4.3s3.7-1.9,3.7-4.3c0-2.3-1.1-4.2-3.7-4.2
	C73.4,185.4,72,187,72,189.6z"/>
<path class="st0" d="M90.4,182.6c4.2,0,6.9,2.7,6.8,7.8H86.8c0,1.9,1.5,3.6,3.4,3.6c0.1,0,0.2,0,0.3,0c1.4,0.1,2.7-0.6,3.3-1.8h3.1
	c-0.9,2.7-3.5,4.4-6.3,4.3c-4.9,0-6.8-3.2-6.8-6.8C83.8,185.4,86.5,182.6,90.4,182.6z M94.2,188.3c-0.1-1.9-1.8-3.4-3.7-3.4
	c-1.9,0-3.5,1.5-3.7,3.4H94.2z"/>
<path class="st0" d="M106.2,182.8c3.6,0,4.7,2.2,4.7,4.4v8.9H108v-7.8c0-1.9-1-2.9-2.8-2.9c-1.9,0-3.4,1.5-3.4,3.3
	c0,0.1,0,0.2,0,0.3v7h-2.9v-12.9h2.9v1.9l0,0C102.8,183.6,104.4,182.7,106.2,182.8z"/>
<path class="st0" d="M123.1,178.4v2.7h-2.9v-2.7H123.1z M123.1,183.1V196h-2.9v-12.9H123.1z"/>
<path class="st0" d="M132.6,182.8c3.6,0,4.7,2.2,4.7,4.4v8.9h-2.9v-7.8c0-1.9-1-2.9-2.8-2.9c-1.9,0-3.4,1.5-3.4,3.3
	c0,0.1,0,0.2,0,0.3v7h-2.9v-12.9h2.9v1.9l0,0C129.2,183.6,130.8,182.7,132.6,182.8z"/>
<path class="st0" d="M144.8,182.6c3.4,0,5.8,1.3,5.9,4.4h-3c-0.2-1.6-1.6-2.1-3.1-2.1s-2.5,0.7-2.5,1.5c-0.1,0.5,0.2,1.1,0.8,1.2
	c0,0,0,0,0.1,0c1,0.3,2.7,0.5,4.2,0.8c2.2,0.5,3.9,1.2,3.9,3.6c0,3.2-2.6,4.4-6.1,4.4c-3.2,0-6.1-1-6.2-4.5l0,0h3.1
	c0.1,1.9,1.8,2.2,3,2.2s3-0.3,3-1.6c0-0.8-0.4-1.1-1.3-1.4c-1.4-0.4-4.3-0.6-5.9-1.4c-1.1-0.6-1.7-1.8-1.6-3
	C139.2,183.5,142.2,182.6,144.8,182.6z"/>
<path class="st0" d="M156.5,179.1v4h3v2.4h-3v6.1c0,1.6,0.2,2.1,1.1,2.1c0.7,0,1.3,0,2-0.1v2.4c-0.7,0.1-1.5,0.2-2.2,0.2
	c-3.2,0-3.8-1.2-3.8-3.7v-7h-2.3v-2.4h2.3v-4L156.5,179.1z"/>
<path class="st0" d="M163.9,178.4v2.7h-2.9v-2.7H163.9z M163.9,183.1V196h-2.9v-12.9H163.9z"/>
<path class="st0" d="M169.9,179.1v4h3v2.4h-3v6.1c0,1.6,0.2,2.1,1.1,2.1c0.7,0,1.3,0,2-0.1v2.4c-0.7,0.1-1.5,0.2-2.2,0.2
	c-3.2,0-3.8-1.2-3.8-3.7v-7h-2.3v-2.4h2.3v-4L169.9,179.1z"/>
<path class="st0" d="M177.3,183.1v7.4c0,2.2,0.8,3.3,2.8,3.3c1.9,0,3.4-1.6,3.4-3.5c0-0.1,0-0.1,0-0.2v-7.1h2.9V196h-2.9v-1.8l0,0
	c-0.9,1.5-2.6,2.3-4.3,2.3c-3.5,0-4.7-2.1-4.7-4.6v-8.7L177.3,183.1z"/>
<path class="st0" d="M192.3,179.1v4h3v2.4h-3v6.1c0,1.6,0.2,2.1,1.1,2.1c0.7,0,1.3,0,2-0.1v2.4c-0.7,0.1-1.5,0.2-2.2,0.2
	c-3.2,0-3.8-1.2-3.8-3.7v-7h-2.3v-2.4h2.3v-4L192.3,179.1z"/>
<path class="st0" d="M203.1,182.6c4.2,0,6.9,2.7,6.8,7.8h-10.4c0,2,1.5,3.6,3.5,3.6c0.1,0,0.2,0,0.3,0c1.4,0.1,2.7-0.6,3.3-1.8h3.1
	c-0.9,2.7-3.5,4.4-6.3,4.3c-4.9,0-6.8-3.2-6.8-6.8C196.5,185.4,199.2,182.6,203.1,182.6z M206.8,188.3c-0.1-1.9-1.8-3.4-3.7-3.4
	c-1.9,0-3.5,1.5-3.7,3.4H206.8z"/>
<path class="st0" d="M364.4,177.8V196h-3v-1.8h0c-0.2,0.7-1.9,2.3-4.4,2.3c-4.2,0-6.2-3.5-6.2-7.1s2-7,6.2-7
	c1.8-0.1,3.4,0.8,4.4,2.3h0v-6.8L364.4,177.8z M353.9,189.4c0,2.5,1.2,4.4,3.8,4.4s3.8-2,3.8-4.4s-1.2-4.4-3.9-4.4
	C355.5,185,353.9,186.5,353.9,189.4L353.9,189.4z"/>
<path class="st0" d="M373.1,182.2c4.4,0,7.1,2.8,7,8h-10.8c-0.1,2,1.5,3.7,3.6,3.8c0.1,0,0.2,0,0.3,0c1.4,0.2,2.8-0.6,3.4-1.9h3.2
	c-1,2.8-3.6,4.5-6.5,4.4c-5,0-7-3.4-7-7C366.3,185,369.1,182.2,373.1,182.2z M377,188c-0.2-2-1.9-3.5-3.9-3.5c-2,0-3.6,1.5-3.8,3.5
	H377z"/>
<path class="st0" d="M383.4,182.7l3.4,9.9l3.5-9.9h3.4l-5.2,13.3h-3.2l-5.2-13.3H383.4z"/>
<path class="st0" d="M401.1,182.2c4.4,0,7.1,2.8,7,8h-10.8c-0.1,2,1.5,3.7,3.5,3.8c0.1,0,0.2,0,0.3,0c1.4,0.2,2.8-0.6,3.4-1.9h3.2
	c-1,2.7-3.6,4.5-6.5,4.4c-5,0-7-3.4-7-7C394.2,185,397,182.2,401.1,182.2z M405,188c-0.2-2-1.9-3.5-3.9-3.5c-2,0-3.6,1.5-3.8,3.5
	H405z"/>
<path class="st0" d="M413,177.8V196h-3v-18.2L413,177.8z"/>
<path class="st0" d="M421.8,182.2c5,0,7,3.4,7,7.1s-2.1,7.1-7,7.1s-7-3.4-7-7.1S416.8,182.2,421.8,182.2z M417.9,189.3
	c0,2.5,1.2,4.5,4,4.5s4-2,4-4.5s-1.2-4.5-4-4.5C419.5,184.8,417.9,186.4,417.9,189.3L417.9,189.3z"/>
<path class="st0" d="M438,182.3c4.2,0,6.2,3.5,6.2,7s-2.1,7.1-6.2,7.1c-2.4,0-4.2-1.6-4.4-2.3h0v6.9h-3v-18.3h3v1.9h0
	C434.6,183.1,436.2,182.2,438,182.3z M433.5,189.3c0,2.5,1.2,4.4,3.8,4.4s3.8-1.9,3.8-4.4c0-2.4-1.2-4.4-3.9-4.4
	C434.9,185,433.4,186.7,433.5,189.3L433.5,189.3z"/>
<path class="st0" d="M453.4,182.3c1.5,0,3.3,0.4,4,2.5c1-1.6,2.7-2.5,4.6-2.5c3.1,0,4.5,2,4.5,4.7v9h-3v-8.1c0-2.1-0.8-2.9-2.8-2.9
	c-1.5,0-3.1,1-3.1,3.5v7.5h-3v-8.2c0-2.1-1-2.8-2.8-2.8c-1.8,0-3.2,1.5-3.1,3.2c0,0.1,0,0.2,0,0.3v7.5h-3v-13.3h3v2l0,0
	C449.8,183.1,451.6,182.2,453.4,182.3z"/>
<path class="st0" d="M475.3,182.2c4.4,0,7.1,2.8,7,8h-10.8c-0.1,2,1.5,3.7,3.5,3.8c0.1,0,0.2,0,0.3,0c1.4,0.1,2.8-0.6,3.4-1.9h3.2
	c-1,2.8-3.6,4.5-6.5,4.4c-5,0-7-3.4-7-7C468.4,185,471.2,182.2,475.3,182.2z M479.2,188c-0.1-2-1.9-3.5-3.9-3.5
	c-2,0-3.6,1.5-3.8,3.5H479.2z"/>
<path class="st0" d="M491.6,182.3c3.7,0,4.8,2.3,4.8,4.5v9.2h-3v-8c0-2-1-3-2.9-3c-1.9,0-3.5,1.5-3.5,3.4c0,0.1,0,0.2,0,0.3v7.2h-3
	v-13.3h3v2l0,0C488,183.1,489.8,182.3,491.6,182.3z"/>
<path class="st0" d="M502.5,178.6v4.1h3.1v2.5h-3.1v6.3c0,1.7,0.3,2.1,1.2,2.1c0.7,0,1.4,0,2-0.1v2.5c-0.7,0.1-1.5,0.2-2.3,0.2
	c-3.3,0-3.9-1.2-3.9-3.8v-7.3h-2.4v-2.5h2.4v-4.1L502.5,178.6z"/>
<path class="st0" d="M518.7,177.8v2.8h-3v-2.8H518.7z M518.7,182.7V196h-3v-13.3L518.7,182.7z"/>
<path class="st0" d="M529.2,182.3c3.7,0,4.8,2.3,4.8,4.5v9.2h-3v-8c0-2-1-3-2.9-3c-1.9,0-3.5,1.5-3.5,3.4c0,0.1,0,0.2,0,0.3v7.2h-3
	v-13.3h3v2l0,0C525.6,183.1,527.4,182.3,529.2,182.3z"/>
<path class="st0" d="M548.9,177.8V196h-3v-1.8l0,0c-0.2,0.7-1.9,2.3-4.4,2.3c-4.2,0-6.2-3.5-6.2-7.1s2-7,6.2-7
	c1.8-0.1,3.4,0.8,4.4,2.3l0,0v-6.8L548.9,177.8z M538.4,189.4c0,2.5,1.2,4.4,3.8,4.4s3.8-2,3.8-4.4s-1.2-4.4-3.8-4.4
	C540,185,538.4,186.5,538.4,189.4L538.4,189.4z"/>
<path class="st0" d="M557.3,182.2c4.4,0,7.1,2.8,7,8h-10.8c-0.1,2,1.5,3.7,3.6,3.8c0.1,0,0.2,0,0.3,0c1.4,0.2,2.8-0.6,3.4-1.9h3.2
	c-1,2.8-3.6,4.5-6.5,4.4c-5,0-7-3.4-7-7C550.5,185,553.3,182.2,557.3,182.2z M561.2,188c-0.2-2-1.9-3.5-3.9-3.5
	c-2,0-3.6,1.5-3.8,3.5H561.2z"/>
<path class="st0" d="M568.3,182.7l2.9,4.3l3-4.3h3.8l-4.8,6.4l5.1,6.8h-4l-3.2-4.7l-3.3,4.8h-3.8l5.1-6.9l-4.8-6.4L568.3,182.7z"/>
<path class="st0" d="M568.2,163.4V157c0-1,0.2-3.6,2.8-3.1c4.6,0.8,14.6-1.2,14.6-11.7c-0.1-2.9-1.2-5.8-3.2-7.9
	c-3-3.4-9.2-5.4-14.9-15.6l0,0c-5.8,10.2-12,12.1-14.9,15.6c-2,2.2-3.2,5-3.2,7.9c0,10.5,10,12.5,14.6,11.7c2.7-0.4,2.8,2.1,2.8,3.1
	v6.5L568.2,163.4z"/>
<path class="st0" d="M40.7,150.3h10.5V141h3.6v9.3h22.3c3.3,0,4.1-1.6,4.1-4.8c0-1.5-0.1-3.1-0.4-4.6h4c0.3,1.7,0.4,3.4,0.4,5.1
	c0,6.3-2.1,8.9-8,8.9H54.8v7.1h-3.6V155H40.7V150.3z"/>
<path class="st0" d="M38.4,131.5h19.4v-0.1c-3.5-1.3-7.6-6.2-7.6-13.7c0-13.6,9.2-14.2,14.2-14.2l20.2-0.1v4.7l-20.7,0.1
	c-3,0-9.7,0-9.7,9.9c0,8.4,4,13.4,12.1,13.4l18.3-0.1v4.7l-46.2,0.1L38.4,131.5z"/>
<path class="st0" d="M50.2,82.4c0-11.4,6.7-18.3,18.5-18.3H69v31.3c6.7,0,12.6-4.6,12.6-13.1c0-7.8-2.7-11.1-7.7-12.8v-4.6
	c7.6,2.4,11.7,8.5,11.7,17.5c0,12.3-8.5,17.6-17.7,17.6C58.3,100,50.2,94.2,50.2,82.4z M65.5,68.7c-7.6,1.2-11.3,6.6-11.3,13.4
	c0,5.8,3.1,12.3,11.3,13.3V68.7z"/>
<path class="st0" d="M110.7,61.6l0.2,94H97.5l-0.2-94L110.7,61.6z"/>
<path class="st1" d="M110.7,35.5v14.4H97.3V35.5H110.7z"/>
<path class="st0" d="M180.1,58.7c39.6,0,40.5,27.3,40.5,41l0.2,55.8h-13.4l-0.2-57.8c0-10.8-0.9-27.8-28.4-27.8
	c-24.6,0-38.1,11.7-38.1,34.5l0.2,51.1h-13.4l-0.2-94h13.4v18.5h0.4C144.7,70.3,158.6,58.7,180.1,58.7z"/>
<path class="st0" d="M332.1,35.1l0.2,120.5h-13.4l-0.2-18.8h-0.4c-6.9,13.4-20.8,21.7-38.3,21.7c-37.2,0-51.1-25.7-51.1-49.9
	c0-27.3,17.2-49.9,51.1-49.9c18.4,0,32.3,10.1,38.3,21.7h0.4V35.1H332.1z M242.3,108.6c0,20.2,11.8,38.7,37.8,38.7
	c22.4,0,39.4-14.3,39.4-38.7c0-20.1-12.8-38.6-39.6-38.6C259.1,70,242.3,84.6,242.3,108.6L242.3,108.6z"/>
<path class="st0" d="M391.5,58.7c33.1,0,52.9,19,52.9,52.2v0.9h-90.7c0,19,13.4,35.4,38,35.4c22.6,0,32.2-7.6,37-21.7h13.4
	c-7,21.5-24.8,32.9-50.6,32.9c-35.6,0-51.1-23.9-51.1-49.9C340.4,81.5,357.4,58.7,391.5,58.7z M431.1,101.7
	c-3.4-21.5-19-31.8-38.9-31.8c-16.8,0-35.6,8.7-38.5,31.8H431.1z"/>
<path class="st0" d="M530.3,73.7l-29.8,33.1l44.3,48.8h-17.7l-35-39l-34.5,39H440l43-48.8l-40-45.2h17.3l31.8,35.8l21-23.8
	L530.3,73.7z"/>
<path class="st2" d="M513,73.7l10.7-12.1h17.5l-11,12.2L513,73.7z"/>
<path class="st3" d="M332.1,21v14.1h-13.4V21H332.1z"/>
<path class="st0" d="M222.4,177.8V196h-3v-18.2L222.4,177.8z"/>
<path class="st0" d="M231.2,181.8c4.4,0,7.1,2.8,7,8h-10.8c-0.1,2,1.5,3.7,3.6,3.8c0.1,0,0.2,0,0.3,0c1.4,0.1,2.8-0.6,3.4-1.9h3.3
	c-1,2.8-3.6,4.6-6.5,4.4c-5,0-7-3.4-7-7C224.4,184.7,227.2,181.8,231.2,181.8z M235.1,187.6c-0.2-2-1.9-3.5-3.9-3.5
	c-2,0-3.6,1.5-3.8,3.5H235.1z"/>
<path class="st0" d="M246,182.2c5.5,0,6.1,2.3,6.1,4.3v6.5c0,0.5,0.3,0.7,0.6,0.7c0.3,0,0.7,0,1-0.1v2.4c-0.7,0.2-1.4,0.3-2.1,0.3
	c-1.5,0-2.1-0.6-2.3-1.7c-1,1.1-2.8,1.8-5.3,1.8c-3.1,0-4.7-1.7-4.7-4.2c0-2.8,1.9-3.8,4.2-4.1c1.6-0.1,3.3-0.4,4.9-0.8
	c0.5-0.1,0.8-0.5,0.7-1c0-1.1-0.7-1.9-3.2-1.9c-1.6,0-3,0.5-3.1,2.2l0,0H240C240.4,183.2,242.7,182.2,246,182.2z M249.2,189.3
	c-0.4,0.2-0.9,0.3-1.3,0.4c-1.9,0.4-3.5,0.4-4.6,0.9c-0.5,0.3-0.9,0.8-0.8,1.4c0,1.5,1,2.1,2.4,2.1c2,0,4.3-0.9,4.3-3.6V189.3z"/>
<path class="st0" d="M267.9,177.8V196h-3v-1.8l0,0c-0.2,0.7-1.9,2.3-4.4,2.3c-4.2,0-6.2-3.5-6.2-7.1s2-7,6.2-7
	c1.8-0.1,3.4,0.8,4.4,2.3l0,0v-6.8L267.9,177.8z M257.4,189.4c0,2.5,1.2,4.4,3.8,4.4s3.8-2,3.8-4.4s-1.2-4.4-3.8-4.4
	C259,185,257.4,186.5,257.4,189.4L257.4,189.4z"/>
<path class="st0" d="M276.6,182.2c4.4,0,7.1,2.8,7,8h-10.8c-0.1,2,1.5,3.7,3.6,3.8c0.1,0,0.2,0,0.3,0c1.4,0.2,2.8-0.6,3.4-1.9h3.2
	c-1,2.8-3.6,4.5-6.5,4.4c-5,0-7-3.4-7-7C269.8,185,272.6,182.2,276.6,182.2z M280.5,188c-0.2-2-1.9-3.5-3.9-3.5
	c-2,0-3.6,1.5-3.8,3.5H280.5z"/>
<path class="st0" d="M292.8,182.3c0.4,0,0.8,0,1.2,0.1v3.4c-0.6-0.2-1.2-0.3-1.9-0.3c-2,0-3.6,1.5-3.7,3.5c0,0.1,0,0.3,0,0.4v6.5h-3
	v-13.3h3v2.6l0,0C289.4,183.5,290.7,182.3,292.8,182.3z"/>
<path class="st0" d="M300.8,182.2c3.5,0,6,1.3,6.1,4.6h-3.1c-0.2-1.7-1.6-2.2-3.2-2.2s-2.6,0.7-2.6,1.6c-0.1,0.6,0.3,1.1,0.9,1.2
	c0,0,0,0,0,0c1.1,0.4,2.8,0.5,4.4,0.9c2.3,0.5,4.1,1.2,4.1,3.8c0,3.4-2.8,4.5-6.3,4.5c-3.3,0-6.3-1.1-6.4-4.6l0,0h3.2
	c0.1,1.9,1.9,2.3,3.1,2.3s3.1-0.3,3.1-1.7c0-0.9-0.4-1.1-1.4-1.4c-1.4-0.4-4.5-0.6-6.1-1.4c-1.1-0.6-1.8-1.8-1.6-3.1
	C295,183.1,298.1,182.2,300.8,182.2z"/>
<path class="st0" d="M311.9,177.8v6.9l0,0c1-1.5,2.7-2.4,4.5-2.4c3.7,0,4.8,2.3,4.8,4.5v9.2h-3v-8c0-2-1-3-2.9-3
	c-1.9,0-3.5,1.5-3.5,3.4c0,0.1,0,0.2,0,0.3v7.2h-3v-18.2L311.9,177.8z"/>
<path class="st0" d="M326.6,177.8v2.8h-3v-2.8H326.6z M326.6,182.7V196h-3v-13.3L326.6,182.7z"/>
<path class="st0" d="M336.2,182.3c4.2,0,6.2,3.5,6.2,7s-2.1,7.1-6.2,7.1c-2.5,0-4.2-1.6-4.4-2.3h0v6.9h-3v-18.3h3v1.9h0
	C332.8,183.1,334.5,182.2,336.2,182.3z M331.7,189.3c0,2.5,1.2,4.4,3.8,4.4s3.8-1.9,3.8-4.4c0-2.4-1.2-4.4-3.9-4.4
	C333.1,185,331.7,186.7,331.7,189.3L331.7,189.3z"/>
</svg>
