<svg id="Group_3" data-name="Group 3" xmlns="http://www.w3.org/2000/svg" xmlns:xlink="http://www.w3.org/1999/xlink" width="259.19" height="79.385" viewBox="0 0 259.19 79.385">
  <defs>
    <clipPath id="clip-path">
      <rect id="Rectangle_8" data-name="Rectangle 8" width="259.19" height="79.385" fill="none"/>
    </clipPath>
  </defs>
  <g id="Group_3-2" data-name="Group 3" clip-path="url(#clip-path)">
    <path id="Path_13" data-name="Path 13" d="M515.863,118.739v-3.091c0-.47.092-1.692,1.349-1.49,2.212.354,6.951-.587,6.948-5.575a5.778,5.778,0,0,0-1.538-3.768c-1.425-1.64-4.365-2.549-7.114-7.409h0c-2.749,4.86-5.69,5.769-7.114,7.409a5.781,5.781,0,0,0-1.539,3.768c0,4.988,4.736,5.929,6.948,5.575,1.257-.2,1.349,1.021,1.349,1.49v3.091h.711Z" transform="translate(-264.97 -50.921)" fill="#00497b"/>
    <path id="Path_14" data-name="Path 14" d="M2.178,119.587H6.913v-4.244H8.529v4.244H18.547c1.472,0,1.819-.751,1.819-2.166a12.16,12.16,0,0,0-.173-2.078h1.79a16.538,16.538,0,0,1,.173,2.338c0,2.887-.924,4.042-3.58,4.042H8.529v3.234H6.913v-3.234H2.178Z" transform="translate(-1.139 -60.298)" fill="#00497b"/>
    <path id="Path_15" data-name="Path 15" d="M0,92.271H8.718v-.058c-1.559-.577-3.406-2.8-3.406-6.235,0-6.179,4.157-6.467,6.381-6.467l9.094-.029v2.137l-9.325.029c-1.357,0-4.359,0-4.359,4.533,0,3.84,1.819,6.091,5.456,6.091l8.228-.029v2.137L0,94.408Z" transform="translate(0 -41.551)" fill="#00497b"/>
    <path id="Path_16" data-name="Path 16" d="M11.131,50.239c0-5.2,3.031-8.322,8.343-8.322h.145V56.176c3.031,0,5.658-2.1,5.658-5.965,0-3.551-1.213-5.056-3.464-5.823v-2.1c3.435,1.108,5.254,3.891,5.254,7.953,0,5.6-3.811,8.038-7.968,8.038-4.33,0-7.968-2.67-7.968-8.038M18,44.019c-3.435.54-5.081,2.983-5.081,6.107,0,2.641,1.386,5.6,5.081,6.05Z" transform="translate(-5.819 -21.913)" fill="#00497b"/>
    <path id="Path_17" data-name="Path 17" d="M62.459,40.561l.086,44.726H56.181l-.086-44.726Z" transform="translate(-29.325 -21.204)" fill="#00497b"/>
    <rect id="Rectangle_5" data-name="Rectangle 5" width="6.365" height="6.873" transform="translate(26.77 6.898)" fill="#3497ce"/>
    <path id="Path_18" data-name="Path 18" d="M111.144,37.678c18.837,0,19.267,12.988,19.267,19.525L130.5,83.78h-6.365l-.086-27.524c0-5.161-.43-13.246-13.5-13.246-11.7,0-18.148,5.591-18.148,16.428L92.48,83.78H86.115l-.086-44.726h6.365v8.774h.172c1.72-4.645,8.343-10.15,18.578-10.15" transform="translate(-44.974 -19.697)" fill="#00497b"/>
    <path id="Path_19" data-name="Path 19" d="M236.437,14.06l.084,57.373h-6.365l-.086-8.945H229.9c-3.269,6.364-9.891,10.321-18.234,10.321-17.718,0-24.341-12.213-24.341-23.739,0-12.988,8.171-23.739,24.341-23.739,8.773,0,15.4,4.816,18.234,10.321h.172V14.06ZM193.689,49.07c0,9.632,5.59,18.406,17.976,18.406,10.665,0,18.75-6.795,18.75-18.406,0-9.548-6.107-18.407-18.837-18.407-9.891,0-17.89,6.968-17.89,18.407" transform="translate(-97.928 -7.35)" fill="#00497b"/>
    <path id="Path_20" data-name="Path 20" d="M322.873,37.677c15.74,0,25.2,9.032,25.2,24.857v.43H304.9c0,9.031,6.365,16.858,18.063,16.858,10.751,0,15.31-3.613,17.632-10.321h6.365c-3.354,10.235-11.783,15.653-24.083,15.653-16.944,0-24.341-11.353-24.341-23.738,0-12.9,8.085-23.74,24.341-23.74m18.836,20.471c-1.634-10.235-9.031-15.138-18.492-15.138-8,0-16.944,4.129-18.321,15.138Z" transform="translate(-156.064 -19.697)" fill="#00497b"/>
    <path id="Path_21" data-name="Path 21" d="M441.714,45.428,426.74,62.064l21.073,23.223h-8.429L422.7,66.708,406.27,85.287h-8.343L418.4,62.064,399.3,40.561h8.257L422.7,57.591l10.74-12.15Z" transform="translate(-208.025 -21.204)" fill="#00497b"/>
    <path id="Path_22" data-name="Path 22" d="M472.331,45.445l4.316-4.885h8.343L480.6,45.432Z" transform="translate(-246.922 -21.204)" fill="#85aa11"/>
    <path id="Path_23" data-name="Path 23" d="M283.266,0V6.715l-6.364,0V.007Z" transform="translate(-144.757 0)" fill="#ef8b46"/>
    <path id="Path_24" data-name="Path 24" d="M285.487,146.134c3.2,0,3.278,1.974,3.278,2.967l.014,4.039H287.7l-.015-4.183c0-.784-.073-2.013-2.3-2.013-1.99,0-3.088.85-3.088,2.5l.015,3.7h-1.083l-.014-6.8H282.3v1.333h.029a3.361,3.361,0,0,1,3.161-1.542" transform="translate(-147.012 -76.395)" fill="#00497b"/>
    <path id="Path_25" data-name="Path 25" d="M57.054,141.259V149.7h6.629l.014.889H55.986l-.014-9.333Z" transform="translate(-29.26 -73.846)" fill="#00497b"/>
    <path id="Path_26" data-name="Path 26" d="M78.385,146.134c2.678,0,4.287,1.372,4.287,3.778v.065H75.328c0,1.372,1.083,2.562,3.072,2.562,1.829,0,2.6-.549,3-1.569h1.083c-.57,1.556-2,2.379-4.1,2.379-2.882,0-4.14-1.725-4.14-3.607,0-1.961,1.375-3.608,4.14-3.608m3.2,3.111a3.281,3.281,0,0,0-6.262,0Z" transform="translate(-38.813 -76.395)" fill="#00497b"/>
    <path id="Path_27" data-name="Path 27" d="M98.723,146.134c1.668,0,3.482.274,3.482,1.974v3.634c0,.615.263.719.615.719.19,0,.366-.013.556-.026v.653a5.336,5.336,0,0,1-.907.1c-.951,0-1.171-.471-1.171-1.2h-.029c-.527.732-1.492,1.359-3.541,1.359-1.346,0-2.97-.523-2.97-2.039,0-1.582,1.594-1.96,2.941-2.078.761-.066,1.639-.066,2.283-.144,1.082-.131,1.229-.3,1.229-.81,0-.98-.7-1.333-2.517-1.333-1.638,0-2.531.353-2.6,1.49h-1c.161-1.5,1.141-2.3,3.628-2.3m1.8,3.582c-.5.091-1.126.144-1.726.2a16.418,16.418,0,0,0-1.654.17c-.79.157-1.3.471-1.3,1.163,0,1.02.951,1.372,2.195,1.372,1.536,0,3.175-.758,3.175-2.091V149.48a2.345,2.345,0,0,1-.688.235" transform="translate(-49.537 -76.395)" fill="#00497b"/>
    <path id="Path_28" data-name="Path 28" d="M123.041,141.094l.015,9.411h-1.083l-.014-1.359h-.03a3.436,3.436,0,0,1-3.1,1.568c-3.014,0-4.14-1.856-4.14-3.607,0-1.974,1.39-3.607,4.14-3.607a3.538,3.538,0,0,1,3.1,1.568h.03v-3.973Zm-7.272,6.013a2.741,2.741,0,0,0,3.058,2.8c1.814,0,3.19-1.032,3.19-2.8,0-1.451-1.038-2.8-3.2-2.8a2.808,2.808,0,0,0-3.044,2.8" transform="translate(-59.955 -73.76)" fill="#00497b"/>
    <path id="Path_29" data-name="Path 29" d="M140.2,146.134c2.678,0,4.287,1.372,4.287,3.778v.065H137.14c0,1.372,1.083,2.562,3.073,2.562,1.829,0,2.6-.549,3-1.569H144.3c-.57,1.556-2,2.379-4.1,2.379-2.882,0-4.14-1.725-4.14-3.607,0-1.961,1.375-3.608,4.14-3.608m3.2,3.111a3.281,3.281,0,0,0-6.263,0Z" transform="translate(-71.127 -76.395)" fill="#00497b"/>
    <path id="Path_30" data-name="Path 30" d="M161.436,146.134a2.744,2.744,0,0,1,.629.052v.993a5.734,5.734,0,0,0-.98-.078,2.414,2.414,0,0,0-2.6,2.562l.015,3.477h-1.083l-.014-6.8h1.082V147.9h.029a2.952,2.952,0,0,1,2.926-1.764" transform="translate(-82.283 -76.395)" fill="#00497b"/>
    <path id="Path_31" data-name="Path 31" d="M172.161,146.134c2.443,0,3.5.784,3.614,2.222h-1c-.278-1.085-1.024-1.412-2.619-1.412-1.17,0-2.194.235-2.194,1.163,0,.6.482.745,1.185.889.849.17,1.727.222,2.648.379,1.419.249,2.283.6,2.283,1.817,0,1.373-1.229,2.157-3.614,2.157-2.531,0-3.848-.771-3.848-2.34h1c.19,1.137.922,1.529,2.853,1.529,1.448,0,2.531-.249,2.531-1.294,0-.745-.834-.915-1.858-1.072-.819-.131-1.844-.157-2.633-.353-.936-.235-1.624-.6-1.624-1.673,0-1.189,1.083-2.013,3.278-2.013" transform="translate(-88.15 -76.395)" fill="#00497b"/>
    <path id="Path_32" data-name="Path 32" d="M188.712,141.094v3.948h.029A3.36,3.36,0,0,1,191.9,143.5c3.131,0,3.278,1.882,3.278,2.888l.014,4.118h-1.082l-.015-4.222c0-.614,0-1.974-2.3-1.974-1.946,0-3.088.824-3.088,2.471l.015,3.725h-1.083l-.014-9.411Z" transform="translate(-98.088 -73.76)" fill="#00497b"/>
    <path id="Path_33" data-name="Path 33" d="M208.887,142.532H207.8v-1.438h1.082Zm0,1.176.015,6.8h-1.083l-.014-6.8Z" transform="translate(-108.635 -73.76)" fill="#00497b"/>
    <path id="Path_34" data-name="Path 34" d="M218.641,146.134c2.9,0,4.141,1.725,4.141,3.607,0,1.908-1.3,3.607-4.141,3.607a3.557,3.557,0,0,1-3.1-1.568h-.029v4h-1.083v-9.437h1.083V147.7h.029a3.153,3.153,0,0,1,3.1-1.568m-3.19,3.607c0,1.477,1.068,2.8,3.19,2.8a2.812,2.812,0,0,0,3.058-2.8,2.746,2.746,0,0,0-3.072-2.8c-1.639,0-3.175.915-3.175,2.8" transform="translate(-112.097 -76.395)" fill="#00497b"/>
    <path id="Path_35" data-name="Path 35" d="M254.856,141.259l.015,9.333h-1.083l-.014-9.333Z" transform="translate(-132.666 -73.846)" fill="#00497b"/>
    <path id="Path_36" data-name="Path 36" d="M265.251,146.134c3.2,0,3.278,1.974,3.278,2.967l.014,4.039h-1.082l-.015-4.183c0-.784-.073-2.013-2.3-2.013-1.991,0-3.088.85-3.088,2.5l.015,3.7h-1.083l-.014-6.8h1.082v1.333h.029a3.361,3.361,0,0,1,3.161-1.542" transform="translate(-136.433 -76.395)" fill="#00497b"/>
    <path id="Path_37" data-name="Path 37" d="M305.216,146.134c2.883,0,4.316,1.686,4.316,3.607s-1.434,3.607-4.316,3.607-4.316-1.686-4.316-3.607,1.434-3.607,4.316-3.607m-3.233,3.607c0,1.621,1.185,2.8,3.233,2.8s3.234-1.176,3.234-2.8c0-1.582-1.141-2.8-3.248-2.8-1.931,0-3.218,1.085-3.218,2.8" transform="translate(-157.302 -76.395)" fill="#00497b"/>
    <path id="Path_38" data-name="Path 38" d="M322.108,146.572l2.985,5.686,2.985-5.686h1.171l-3.556,6.8h-1.171l-3.57-6.8Z" transform="translate(-167.785 -76.624)" fill="#00497b"/>
    <path id="Path_39" data-name="Path 39" d="M343.958,146.134c1.668,0,3.482.274,3.482,1.974v3.634c0,.615.263.719.615.719.19,0,.366-.013.556-.026v.653a5.341,5.341,0,0,1-.907.1c-.951,0-1.171-.471-1.171-1.2H346.5c-.527.732-1.492,1.359-3.541,1.359-1.346,0-2.97-.523-2.97-2.039,0-1.582,1.594-1.96,2.941-2.078.761-.066,1.639-.066,2.283-.144,1.082-.131,1.229-.3,1.229-.81,0-.98-.7-1.333-2.517-1.333-1.638,0-2.531.353-2.6,1.49h-.995c.161-1.5,1.141-2.3,3.628-2.3m1.8,3.582c-.5.091-1.126.144-1.726.2a16.418,16.418,0,0,0-1.654.17c-.79.157-1.3.471-1.3,1.163,0,1.02.951,1.372,2.195,1.372,1.536,0,3.176-.758,3.176-2.091V149.48a2.345,2.345,0,0,1-.688.235" transform="translate(-177.739 -76.395)" fill="#00497b"/>
    <path id="Path_40" data-name="Path 40" d="M361.295,142.08v2.144h2.15v.732h-2.15v4.536c0,.667.38.823,1.1.823a6.82,6.82,0,0,0,1.053-.078v.81a9.325,9.325,0,0,1-1.185.079c-1.463,0-2.048-.419-2.048-1.621v-4.548h-1.639v-.732h1.639V142.08Z" transform="translate(-187.452 -74.276)" fill="#00497b"/>
    <path id="Path_41" data-name="Path 41" d="M373.208,142.532h-1.082v-1.438h1.082Zm0,1.176.015,6.8H372.14l-.014-6.8Z" transform="translate(-194.537 -73.76)" fill="#00497b"/>
    <rect id="Rectangle_6" data-name="Rectangle 6" width="1.082" height="1.438" transform="translate(203.456 71.941)" fill="#00497b"/>
    <rect id="Rectangle_7" data-name="Rectangle 7" width="1.082" height="1.438" transform="translate(114.678 71.941)" fill="#00497b"/>
    <path id="Path_42" data-name="Path 42" d="M382.511,146.134c2.883,0,4.317,1.686,4.317,3.607s-1.434,3.607-4.317,3.607-4.316-1.686-4.316-3.607,1.434-3.607,4.316-3.607m-3.234,3.607c0,1.621,1.185,2.8,3.234,2.8s3.234-1.176,3.234-2.8c0-1.582-1.141-2.8-3.249-2.8-1.931,0-3.219,1.085-3.219,2.8" transform="translate(-197.71 -76.395)" fill="#00497b"/>
    <path id="Path_43" data-name="Path 43" d="M404.422,146.134c3.2,0,3.278,1.974,3.278,2.967l.014,4.039h-1.082l-.015-4.183c0-.784-.073-2.013-2.3-2.013-1.991,0-3.088.85-3.088,2.5l.015,3.7h-1.083l-.014-6.8h1.082v1.333h.029a3.361,3.361,0,0,1,3.161-1.542" transform="translate(-209.188 -76.395)" fill="#00497b"/>
    <path id="Path_44" data-name="Path 44" d="M448.227,141.259v.889H441v3.163h6.965v.889H441v3.5h7.345l.015.889h-8.428l-.015-9.333Z" transform="translate(-229.976 -73.846)" fill="#00497b"/>
    <path id="Path_45" data-name="Path 45" d="M464.7,146.134a3.4,3.4,0,0,1,3.189,1.568h.03v-1.359H469v9.437h-1.082v-4h-.03a3.566,3.566,0,0,1-3.1,1.568c-2.751,0-4.14-1.634-4.14-3.607,0-1.751,1.317-3.607,4.053-3.607m-2.971,3.607a2.82,2.82,0,0,0,3.058,2.8c2.137,0,3.19-1.333,3.19-2.8,0-1.725-1.317-2.8-3.2-2.8a2.731,2.731,0,0,0-3.044,2.8" transform="translate(-240.812 -76.395)" fill="#00497b"/>
    <path id="Path_46" data-name="Path 46" d="M483.648,146.572V151c0,1.189.79,1.765,2.3,1.765,1.975,0,3.087-.811,3.087-2.536v-3.66h1.083l.014,6.8h-1.082l-.015-1.333H489a3.35,3.35,0,0,1-3.145,1.542c-2.18,0-3.292-.9-3.292-2.732v-4.274Z" transform="translate(-252.272 -76.624)" fill="#00497b"/>
    <path id="Path_47" data-name="Path 47" d="M503.824,142.532h-1.082v-1.438h1.082Zm0,1.176.015,6.8h-1.083l-.014-6.8Z" transform="translate(-262.82 -73.76)" fill="#00497b"/>
    <path id="Path_48" data-name="Path 48" d="M510.185,142.08v2.144h2.15v.732h-2.15v4.536c0,.667.38.823,1.1.823a6.817,6.817,0,0,0,1.053-.078v.81a9.323,9.323,0,0,1-1.185.079c-1.463,0-2.048-.419-2.048-1.621v-4.548h-1.639v-.732H509.1V142.08Z" transform="translate(-265.288 -74.276)" fill="#00497b"/>
    <path id="Path_49" data-name="Path 49" d="M520.33,146.572l3.1,5.66,2.868-5.66h1.171l-3.995,7.8c-.117.235-.234.457-.336.64a2.035,2.035,0,0,1-2.121.993c-.337,0-.556,0-.922-.026h-.015v-.81c.322.013.542.026.761.026a1.387,1.387,0,0,0,1.522-.837l.5-.941-3.687-6.849Z" transform="translate(-271.41 -76.624)" fill="#00497b"/>
  </g>
</svg>
